<?xml version="1.0" encoding="UTF-8"?>
<svg id="Layer_2" data-name="Layer 2" xmlns="http://www.w3.org/2000/svg" viewBox="0 0 330.15 102.12">
  <defs>
    <style>
      .cls-1 {
        fill: #fff;
      }

      .cls-2 {
        fill: #54c8f3;
      }

      .cls-3 {
        fill: #0c3459;
      }

      .cls-4 {
        fill: #034ea2;
      }
    </style>
  </defs>
  <g id="Layer_1-2" data-name="Layer 1">
    <g>
      <circle class="cls-2" cx="47.73" cy="31.83" r="31.83"/>
      <g>
        <path class="cls-1" d="m39.77,41.47c0-.06,0-.15-.07-.27.03.06.06.15.07.27h0Zm0,.03s0,.09-.01.13c0-.25,0-.34-.06-.46-.01,0-.03,0-.04-.01-.09-.03-.18-.05-.27-.08-.05-.4-1.96-2.88-3.18-3.27-.01.02-.03.05-.05.07.46.62.78,1.12,1.46,2.22.48.77,1.02,1.65,1.4,2.08.18.2.55.62.7-.27.02-.13.04-.41.04-.41h0Z"/>
        <path class="cls-1" d="m44.67,8.42c0-.06,0-.11,0-.17,0,.06,0,.11,0,.17h0Z"/>
        <path class="cls-1" d="m52.81,43.84s-.04-.03-.06-.04c.03,0,.04.03.07.04h0Z"/>
        <path class="cls-1" d="m55.83,50.96c-.33,1.29-1.75,2.4-2.68,3.14-.15-.1-.29-.19-.44-.29-1.27.7-1.72-.58-1.92-1.13q-.1.11-.2.15c.04-.2.08-.4.13-.59-.26.24-.52.48-.79.72-.16-.37-.34-.79-.76-.88-.23-.05-2.38.06-2.59.16-.21.1-.32.35-.56.42-.31.08-.63,0-.94.07-.28.07-.49.29-.78.34-.22.03-.56-.06-.56-.06-.18-.1-.22-.18-.28-.78-.09-1.07-.36-1.45-.94-2.3.02-.02.04-.04.06-.05.12.06.24.13.36.19.02,0,.04-.01.05-.02-.37-.86-.41-.95-.09-1.29.19-.2.6-.26.86-.36.91-.31,1.11-.49,1.87-1.13-.18-.21-.13-.29.21-.43q.08.18.18.24c.07-.33.09-.42,1.13-1.3.38.21.47.33.44.63.07-.08.14-.16.2-.24.19.08.39.16.58.24-.16-.21-.32-.43-.17-.69.08-.14.09-.15.3-.38.17-.18.44-.07.62-.22-.02-.07-.03-.15-.05-.22q1.02.29,1.48.25-.42.99-.42,1c.05.06,1.35,1.2,1.76.86.19-.16.28-.72.38-1.31.11-.63.15-.72.3-1.07.03,0,.08,0,.11-.01q.31,1.13.43,1.21t.19-.11s.02.02.38,1.14q.19.59.48.69c.15.06.37.22.47.39.02.04.05.09.07.13.04.08.05.21.09.29.09.17.44.25.31.49.19.38.54.66.68,1.07.07.21.12.61.01,1.02h0Z"/>
        <path class="cls-1" d="m55.34,44.23s.04-.02.05-.03q-.29-.13-1.33-1.19c.12-.05.25-.1.37-.15,0-.02.01-.06.02-.08-.49-.16-.75-.27-1.43-.75-.42-.3-.78-.55-1.18-.63-.63-.12-1.18.11-1.92.53q-.47-1.15-.75-1.13c-.16.03-.25.06-.64.2.09.06.19.1.27.18.06.06.02.17.1.22.05.04.09.05.24.02.17-.03.28-.05.42.05q-.1.11-.56.18c.09.18.18.36.27.54.06-.07.11-.15.17-.22.18.07.41.16.58.23.31.12.66.12.93.34.11.09.13.15.47,1.07.08-.02.16-.04.24-.05.14.18.21.25.31.32q.07.05.15.08l.09.03h.06s.09.02.09.02h.06s.09-.01.09-.01h.05s.05-.03.13-.07c.07-.04.08-.05.13-.09-.04.04-.08.06-.11.08.03-.02.06-.05.09-.07l-.02-.03c-.09-.06-.17-.11-.26-.17q.33-.05.38-.25c.18-.1.6-.16,1.36.55.29.27.59.55,1.08.29h0Z"/>
        <path class="cls-1" d="m44.18,40s-.04,0-.06,0c-.02,0-.04,0-.05,0h-.05s-.03,0-.05,0c-.02,0-.03,0-.05,0h-.05s-.03,0-.05,0c-.29,1.47-.62,1.79-.93,1.92-.23-.14-.46-.28-.69-.42q-.24.18-.3.18c-.14,0-.18-.15-.28-.21-.35.06-.4-.08-.43-.19,0-.03,0-.06-.01-.09-.01-.09,0-.18-.02-.27,0-.07-.08-.16-.12-.22-.36-.47-.33-.68-.07-1.19.17.07.34.15.52.22.02-.02,1.71-1.78,1.98-2.12.26.23.52.47.78.7q-.51.55-.51.81c0,.49.29.71.51.88-.02,0-.05,0-.07,0h0Z"/>
        <path class="cls-1" d="m51.29,24.06c.02.59-.12,1.57-.23,1.87-.22.06-.4.22-.63.27-.16.03-.43,0-.57-.03.03.07.05.14.08.21-.09.11-.18.22-.28.33q-.22-.07-.15-.44c-.34.02-.53.04-.78.16-.24.12-.27.13-.52.15-.01-.02-.03-.06-.04-.08.92-.84,1.31-.64,1.4-.56q.11-.12.44-.89s0,.04,0,.06c0,.02,0,.04,0,.05,0,.02,0,.03,0,.05v.04s0,.03,0,.04c0,.01,0,.03,0,.04,0,.01,0,.02,0,.04,0,.01,0,.02,0,.04.41-.23.9-.88.69-1.45q.12-.22.15-.42c.11,0,.21,0,.32.01.05.11.09.2.1.52h0Z"/>
        <path class="cls-1" d="m46.34,39.91c-.13.43-.3.41-1.59.25q-.21.3.09.75c.25-.07.49-.15.74-.23.01.03.03.07.05.1-.15.12-.29.24-.44.35q.21.71.48.92c-.15.07-.29.14-.44.2-.11-.27-.22-.54-.33-.8q-.22.1-.15,1.08c-.16.02-.22,0-.26-.1-.06-.14-.21-.96-.21-.96,0,0,.23-1.07.52-1.42.19-.24.39-.16.57-.08.4.17.63.18,1.02-.21,0,.04-.02.1-.03.14h0Z"/>
        <path class="cls-1" d="m51.88,20.03c-.08-.06-.15-.11-.23-.17-.29.45-.25.72.2,1.26-.03.01-.06.02-.09.03-.07-.07-.14-.13-.21-.2-.06.11-.11.22-.17.33,0-.03-.42-2.91-.25-3.62.26.8.51,1.59.76,2.39-.02-.01-.02-.01-.02-.01Z"/>
        <path class="cls-1" d="m49.72,8.47c-.1.36-1.06.42-1.24.17-.09-.12-.05-.42.23-.37.11.02.22.09.3.14.04-.07.08-.14.12-.21v.06c.2.06.4.12.59.17,0,.01,0,.03,0,.04h0Z"/>
        <path class="cls-1" d="m46.05,34.95c-.07.08-.13.17-.2.25-.35-.13-.69-.26-1.04-.39.03-.08.06-.16.09-.24q-.36-.25-.36-.27s0-.06.04-.19c.11-.4.16-.67.24-1.19.18.05.36.11.54.16.1.53.03.66-.12.81-.14.14-.19.26-.05.79.3.07.59.15.89.22,0,.01-.02.03-.03.04h0Z"/>
        <path class="cls-1" d="m52.22,22.57c-.11.08-.21.15-.32.23-.08.05-.14.13-.23.16-.04.01-.1,0-.15,0-.07,0-.16,0-.22-.01-.09,0-.18-.01-.27,0t-.18.05c.05.08.09.15.14.23-.06.03-.11.06-.17.09-.05-.12-.11-.24-.16-.36.12-.15.26-.28.38-.43.09-.13.12-.22.13-.27.08-.26-.06-.52-.12-.64.28.16.45.45.73.6.07.04.2.06.38-.02.05.11.1.22.15.33-.02.02-.06.04-.08.06h0Z"/>
        <path class="cls-1" d="m42.69,43.71c-.81-.2-1.63-.33-2.43-.58t-.52-.34c0-.19.05-.25.2-.25.12.02.2.04.49.18.49.23.83.36,1.06.13.05.09.05.09.2.11.27.03.27.08.19.32q.86.09.81.43h0Z"/>
        <path class="cls-1" d="m43.19,6.66c-.06.12-.11.23-.16.35-.01,0-.03,0-.04,0-.55-.1-.53-.15-.52-.21.03-.11,0-.11-.15-.09.25-.19.42-.21.5-.21.09.01.11.05.11.14.21-.11.22-.11.29-.02,0,.01-.02.03-.02.05h0Z"/>
        <path class="cls-1" d="m46.72,37.53q-.23.11-.25.14s0,.02.05.4q-.44-.18-.59-.75c-.2.06-.4.12-.61.18-.07-.2-.03-.25.17-.33.16-.06.18-.1.18-.21.02,0,.06,0,.08,0,.03.05.06.09.09.14.2-.08.39-.16.59-.24-.01-.11-.02-.21-.03-.32.24.05.33.29.38.95-.02,0-.05.02-.07.03h0Z"/>
        <path class="cls-1" d="m43.77,7.16c-.29.2-.81.24-.94.19.07-.04.12-.08.26-.23.2-.22.27-.28.41-.28.02,0,.04,0,.06.01-.03.03-.05.07-.08.1.11.06.22.12.34.17-.01.01-.03.03-.05.04h0Z"/>
        <path class="cls-1" d="m53.64,54.71c-.07.18-.14.37-.21.55-.01,0-.03-.02-.05-.03-.37.25-.39.27-.46.23-.11-.05-.35-.52-.32-.62.02-.07.11-.07.27-.06.34.01.52-.02.74-.15l.04.05s-.01.03-.01.04h0Z"/>
        <path class="cls-1" d="m43.06,6.3c-.41.33-.59.11-.65.03,0,0,.02-.02.03-.03.04-.03.08-.07.11-.1.03-.03.05-.06.08-.08.06-.03.17-.08.28-.08.1.01.15.08.18.23-.01,0-.02.02-.03.03h0Z"/>
        <path class="cls-1" d="m31.97,36.74c-.05.31-.4.36-.52.19-.1-.15-.08-.88-.08-.88q0-.08.19-.45s.06.01.09.02q.33,1.05.32,1.13h0Z"/>
        <path class="cls-1" d="m46.71,9.57c0,.06,0,.23-.13.24q-.08,0-.53-.2s.1-.03.14-.04c-.01-.06-.03-.12-.03-.18,0-.03.02-.06.03-.08.17.06.34.13.51.19,0,.02,0,.06,0,.08h0Z"/>
        <path class="cls-1" d="m48.33,27.06c0,.31-.14.62-.19.74-.07-.03-.23-.1-.25-.24-.03-.2.11-.36.13-.54-.1.02-.2.05-.3.08.09-.17.22-.4.4-.41.19,0,.21.27.2.38h0Z"/>
        <path class="cls-1" d="m45.17,30.6c-.02.17-.14.45-.33.83-.39-.33-.05-.89.25-1.17.02.07.05.14.07.21,0,.03.01.07,0,.13h0Z"/>
        <path class="cls-1" d="m41.49,32.45c-.12.19-.23.37-.35.56-.31-.48-.25-.72.02-.71.1,0,.21.04.35.11,0,.01-.02.03-.02.04h0Z"/>
        <path class="cls-1" d="m50.7,8.66c-.13.07-.64.11-.78-.29.13.11.23.13.4.13.16,0,.26.02.4.14h-.02Z"/>
        <path class="cls-1" d="m55.84,42.07c-.03.26-.26.56-1.24.51,0-.05.01-.11.02-.16q.57-.03.72-.1c.27-.12.4-.31.48-.43,0,.04.02.1.01.17h0Z"/>
        <path class="cls-1" d="m46.86,43.79c-.51.42-.63.52-.7.55-.13.06-.18-.02-.17-.13,0,0,.06-.48.63-.5.1,0,.17.01.29.05-.01.01-.03.02-.04.03h0Z"/>
        <path class="cls-1" d="m47.63,40.07c-.07.21-.14.43-.21.64-.02,0-.04.01-.06.02-.05-.37-.09-.75-.14-1.12.03,0,.07,0,.1-.01.11.15.21.29.32.44,0,0,0,.02-.01.03h0Z"/>
        <path class="cls-1" d="m49.63,9.35q-.12.07-.14.07s-.04,0-.36-.05c.05-.13.1-.17.2-.17.07,0,.15.01.3.06.01.02.02.05.04.07-.01,0-.03.01-.04.02h0Z"/>
        <path class="cls-1" d="m49.18,26.67c-.1.14-.15.13-.19.12-.07-.02-.1.02-.22.32-.05-.03-.18-.08-.19-.19,0-.03,0-.06.02-.12.03-.08.08-.14.11-.22.1-.02.21-.05.31-.06t.19.09s-.02.03-.03.05h0Z"/>
        <path class="cls-1" d="m47.12,9.68c-.11.06-.22.12-.33.18-.01-.01-.03-.03-.04-.04.03-.09.05-.18.08-.26.01-.04.03-.04.04-.04.02,0,.02,0,.06.02.07.04.14.08.21.12,0,0-.02,0-.02.01h0Z"/>
        <path class="cls-1" d="m46.33,36.33c-.08-.08-.16-.17-.24-.25-.04.01-.08.03-.11.04.03.16.07.32.1.49-.31-.28-.24-.6-.03-.61.16,0,.28.18.36.31-.02.01-.05.02-.07.03h0Z"/>
        <path class="cls-1" d="m48.29,41.78q-.59-.05-.63-.06c-.1-.03-.14-.09-.19-.19.28.12.7-.14.88.25-.02,0-.04,0-.06,0h0Z"/>
        <path class="cls-1" d="m45.34,43.81c-.62-.12-.56-.16-.42-.16.13,0,.26.05.45.16h-.02Z"/>
        <path class="cls-1" d="m42.42,6.52s-.02.04-.03.05c-.25-.05-.24-.07-.23-.09l.26.04Z"/>
        <path class="cls-1" d="m45.65,35.9c-.1.1-.2.2-.3.31-.02,0-.06-.02-.08-.02.02-.15.05-.3.07-.45.11.05.22.1.33.14,0,0-.02.02-.03.03h0Z"/>
        <path class="cls-1" d="m46.48,35.96c-.14-.18-.27-.35-.41-.53.12.02.25.04.37.06q.05.22.12.41s-.06.04-.08.05h0Z"/>
        <path class="cls-1" d="m39.97,41.4c-.09-.08-.18-.15-.27-.23,0-.11-.02-.21-.02-.32.02,0,.05,0,.07-.01.09.16.18.33.27.49-.01.02-.03.05-.05.07h0Z"/>
        <path class="cls-1" d="m44.82,44.33c-.15-.08-.31-.16-.46-.25.11-.05.17-.07.24-.07.12,0,.18.09.24.33-.02,0-.02,0-.02,0Z"/>
        <path class="cls-1" d="m23.71,43.77c-.06-.05-.13-.11-.19-.16,0,.02.17,3.03.16,3.23,0,.03-.03.33-.34.09-.31-.24-.63-.79-.72-1.14-.09-.34.06-.69,0-1.03-.04-.23-.22-.39-.25-.62,0-.03,0-.08-.01-.12-.01-.14.03-.36.07-.5,0,.02,0,.04.02.05,0,0,.6,0,.79-1.06.03,0,.06.01.08.02.15.47.25.76.45,1.28-.01-.01-.03-.03-.04-.04h0Z"/>
        <path class="cls-1" d="m35.55,4.95s.04-.03.07-.05c0,.01,0,.02,0,.04-.02,0-.04.01-.06.01h0Z"/>
        <path class="cls-1" d="m37.88,5.43c-.35.08-.45.1-.5.11-.02,0-.03,0-.04,0-.02-.02-.03-.04-.05-.06.01,0,.03-.02.04-.03q.51-.11.54-.1s.06.05.09.07c-.03,0-.06.01-.08.02h0Z"/>
        <path class="cls-1" d="m33.26,9.75c-.17.1-.35.21-.31.04.01-.07.19-.23.3-.21.04.02.05.06.03.16,0,0-.02.01-.02.01h0Z"/>
        <path class="cls-1" d="m38.52,5.52s-.07,0-.21-.03c-.05-.01-.11-.03-.16-.04.02-.01.04-.03.05-.04.16-.03.2-.05.25-.04.04.02.06.06.07.15h0Z"/>
        <path class="cls-1" d="m37.65,5.3c-.09-.01-.18.05-.27.03-.05,0-.04-.05-.01-.09.12,0,.24,0,.36,0-.02.02-.04.03-.06.05h-.01Z"/>
        <path class="cls-1" d="m38.44,5.75s-.03,0-.08,0c-.05,0-.07,0-.07,0,0-.01.02-.05.02-.06.02-.02.05-.04.08-.06.04.02.08.04.11.07-.02.01-.04.03-.06.05h0Z"/>
        <path class="cls-1" d="m38.18,7.38q-.18.1-.54.16s-.04.04-.06.07h-.05c-.07,0-.58.1-.68.13-.14.04-.24.15-.37.2-.3-.03-1.42.75-1.43.76-.14.12-.18.22-.3.74q-.4-.15-.42-.2c.03-.05.03-.06.2-.17-.07-.06-.15-.12-.22-.17.22-.38,1.04-.67,1.05-.67,0-.04.01-.08.02-.12.03-.02.06-.04.09-.06.19-.12.41-.19.61-.31.03-.02,0-.07.05-.09,0,0,.28-.11.36-.14.15-.05.69-.17.69-.17.04,0,.11,0,.16.01.06.01.12.02.36-.02.02-.02.04-.05.06-.07h.04q.25-.08.33-.07c.06.02.1.05.13.12-.03.01-.06.03-.09.05h0Z"/>
        <path class="cls-1" d="m58.75,11.19c-.31-.26-.42-.36-.93-.25.06.09.12.18.18.28q-1.85-.89-3.35-1.03s-.11.1-.16.14c.09.08.18.23.2.35q-1.25.02-1.33.57c-1.06-.31-1.97-2.19-3.11-1.12.01-.07.03-.16.05-.23q-.23-.1-1.06-.25-.12.25-.11.64c-.96.11-1.25-.03-1.29-.06-.1.08-.22.23-.27.35q-.26-.03-.72-.63s-.03.03-.05.04c0,.07.01.16.02.23-.02-.01-1.65-1.17-2.48-.72,0-.07,0-.16,0-.22q-.17-.04-1.34.29,1.53-1.17,1.57-1.31-.28-.28-.79-.23c-.16-.21-.28-.21-.41-.22l.02-.05c.07-.02.15-.04.22-.06-.1-.06-.25-.13-.37-.14q-.33.11-.44.48c-.1-.04-.25-.08-.36-.08,0,.07,0,.16,0,.23-2.27-.12-2.28.37-2.28.73-.05.04-.12.09-.17.13-.03-.06-.07-.14-.09-.2-.35-.04-.42-.04-.89.03-.14.38-.17.44.01.75-.07.18-.19.41-.29.59.02-.23,0-.45,0-.68-.32-.32-.46-.25-.87-.06.07.1.15.25.17.37-.12-.06-.27-.2-.32-.32.1-.12.22-.29.31-.41-.01-.03-.03-.08-.05-.11-.27.52-.8.83-1.05,1.36q.33.19.43.56c-.05.04-.12.1-.18.14,0,.06.02.14.03.21-.05-.05-.11-.11-.16-.15.04-.06.1-.14.14-.2-.02-.06-.05-.15-.08-.22-.07-.01-.15-.03-.22-.05q-1.01.92-1.07.94c-.1-.08-.24-.17-.36-.22.02-.03.05-.07.07-.1q.39.1,1.09-.54c-.13-.81.76-1.12.88-1.8-1.12-.27-1.15,1.16-1.75,1.71-.09-.11-.19-.25-.26-.37,0,0-.02-.02-.02-.02,0-.09.03-.12.05-.16h-.03s-.03.04-.05.06c-.07-.1-.19-.23-.29-.29-.31.12-.49.4-.77.56.01-.06.03-.14.05-.2q-.28-.11-.79.04c.01-.06.03-.14.04-.2q-.3-.03-1.61.42c-.02-.07-.05-.17-.07-.24q.46-.32.5-.39c-.07-.06-.16-.14-.23-.2q-.57.76-.77.97c-.09-.07-.25-.14-.36-.13l-.15.05-.16.07s-.03.02-.45.48c-.04-.07-.09-.16-.13-.23-.07-.01-.15-.03-.22-.04-.04.12-.13.27-.22.36-.18-.55.37-.85.46-1.3q.91.49,1.02.43c.38-.23.24-1.1.22-1.16-.04-.11-.1-.28-.07-.4-.09-.05-.21-.12-.27-.21.07-.02.16-.04.23-.06.03-.06.07-.14.1-.19-.1,0-.23-.01-.32,0,.1-.08.23-.19.34-.27-.12.04-.28.09-.4.14.02-.05.11-.12.2-.19-1.54,1.24-2.9,2.55-4.15,3.97.09,0,.21,0,.3,0,.02.06.05.15.07.22q-.19.17-.62.11c-1.92,2.2-3.58,4.65-4.92,7.28-.02.18-.05.41-.08.59.01,0,.03,0,.04-.01-.06.11-.13.26-.19.37-.1.11-.13.09-.17.07q-.08.86.23,1.14s.11-.1.16-.14c.09.1.17.25.22.37.21.06.41-.05.62-.01-.01.03-1.21,3.23-2.45,1.31-1.5,3.88-2.33,8.07-2.33,12.35,0,4.7.97,9.01,2.72,12.75h.04c.54-.74.24-1.76.02-2.31.56-.53.15-5.5.14-5.55-.51-2.96,1.86-4.89,2.64-7.39q-1.71-.12-1.77-.35c-.56-1.96-1.15-3.99-.66-8.12.01,0,.03,0,.04-.01.01.16.03.37.04.53.06-.03.14-.07.2-.1.32,7.91.37,9.13,3.94,5.67.16-.16.94-1.23.95-1.24q-.57-1.43-.52-1.87c-.26.26-.38.37-.7.7q-.43-.11-.61-.23c.03-.21.08-.48.14-.68-.09.1-.2.26-.26.39,0-.02-.23-1.99.14-2.23.58.48.41,2,1.4,1.7q.64,1.1,1.76,1.25c.14-.01.14-.04.15-.06.06,0,.15,0,.22.01q.13.19.29.69c.07.02.15.05.22.06,0,.14.04.34.1.47.1.03.23.08.33.12-.12.05-.26.2-.31.32.06.14.17.32.26.45.08,0,.18,0,.25,0,.1-.12.24-.27.34-.39.03,4.11.52,5.46.91,5.87.14-.06.31-.17.43-.27.2-2.93,2.68-5.01,4.06-4.72q.12-.2.1-.69c.06.02.15.05.21.07l.73,3.47c.02-.07.04-.16.05-.23.06.01.15.03.21.04q.14-.13.54-.54c.4,1.49.24,3.06.72,4.54.48,1.46.69,1.57,1.4,1.95-.26-1.63-3.09-3.8-1-4.84.42.63,1.38.84,1.39,1.79,1.27-.8,2.1-1.32,1.09-2.73-.91-1.25-.82-1.39.31-2.32q.27.18.4.58.13-.23.98-.57c.05-.12.11-.28.16-.41.63.73,2.17-.69,2.84-2.63-.06-.07-.14-.15-.21-.22,0-.06.01-.15.02-.21.05-.04.12-.08.17-.12-.1-.13-.26-.28-.39-.37.06-.01.15-.03.21-.05q-.32-1.8.55-2.32c-.59-.21-.62-.19-.92,0q-.37-.38-.56-.43s.72-.94,1.18-1.07c.06.04.13.09.19.12q-.05.25-.23.65.85-.37,1.05-.37.19.21.17.84c.14,0,.33.08.45.16q-.09,1.1-.02,1.3,1.01-.35.28-2.08c.29-.64.82-1.1,1.23-1.65,1.27.5,2.84-3.1,2.29-4.35-.07-.15-.22-.32-.34-.43-.14.04-.32.12-.44.19-.03-.06-.06-.13-.09-.19-.06.03-.14.06-.2.09-.09-.13-.25-.26-.39-.32,1.88-2.56,2-2.72,3.69-2.26.02.06.05.14.07.2.1,0,.25,0,.35-.03.14-.04.32-.1.46-.15-.06-.02-.14-.05-.2-.08.08-1.17.61-1.05.93-.98.05.13.11.29.16.42.03-.02.06-.04.09-.06,0-.02-.01-.03-.02-.05.12-.41.12-.47,0-1.08.07-.02.16-.05.22-.08.05.04.11.09.15.13-.06,0-.15-.02-.21-.02q.18.92.27,1.1c.1-.07.24-.16.34-.23.14-.01.16.05.18.12.09-.11.23-.26.34-.35.13.02.29.06.41.12.39-.4.63-.9.94-1.35.14.02.33.07.46.11-.04-.32-.35-.83-1.02-.9.01-.06.03-.15.04-.21.14.01.32.01.46,0,.04-.07.09-.15.12-.22-.06-.1-.12-.27-.13-.39q.17.14,1.47.53.13-.71.15-.74h0Z"/>
        <path class="cls-1" d="m55.67,16.49c0,.17-.13.32-.11.49.02.13.15.28.23.37t-.28.14c-.07.08-.08.16-.03.32.02.07,0,.11,0,.11-.03.06-.1.07-.13.12-.1.16,0,.34-.03.51t-.22.36s-.07-.02-.11-.04q-.73-2.05-.75-2.14c-.02-.08-.01-.1.02-.15.07-.09.09-.18.07-.53.19-.17.4-.37.53-.73,0-.02-.01-.04-.02-.06l.04-.04c.06-.07.13-.13.19-.21.07.1.17.23.19.3.01.03.02.06.03.09.06.19-.06.38,0,.57.07.21.36.26.35.53h0Z"/>
        <path class="cls-1" d="m62.05,52.46s-.04.06-.07.09c-.12.12-.29.15-.4.27-.05.06-.11.15-.16.21-.32.44-.4.47-.43.48,0,0-.02-.01-.03-.02-.03-.14-.01-.28-.06-.42-.02-.06-.1-.11-.15-.14.34-.41.42-.5.42-.58,0-.03-.02-.08-.05-.13-.12-.22-.17-.44-.22-.89.29.13.36.24.33.56-.01.13,0,.2.25.09.06.39.12.45.61.19,0,.1,0,.18-.06.28h0Z"/>
        <path class="cls-1" d="m56.22,9.23c-.18.08-.33.15-.5.22-.08-.2-.05-.32.09-.35.11-.02.24.02.42.13h-.02Z"/>
        <path class="cls-1" d="m59.83,47.43c-.21-.17-.43-.34-.64-.51.04-.04.08-.07.12-.11.2.18.41.36.61.54-.03.03-.06.06-.09.09h0Z"/>
        <path class="cls-1" d="m61.77,5.36s.03.05.21.14c-.04.02-.05.06-.09.08-.03,0-.09,0-.12-.01-.01,0-.02-.02-.03-.02-.06-.05-.11-.1-.17-.15,0,.01,0,.02.01.07.03.07.02.07-.04.07-.04-.01-.07-.02-.1-.04,0-.01,0-.02-.04-.06,0,0,.02.01.03.02.02,0,.03-.01.05-.02-.11-.06-.23-.11-.34-.17.1.02.2.04.3.05-.01-.01-.03-.03-.05-.04q-.27-.08-.33-.11s.07-.02.1-.04c0-.02-.02-.04-.02-.06.07.01.61.28.62.3h0Z"/>
        <path class="cls-1" d="m60.41,4.74c-.09.02-.26,0-.28-.01-.01,0-.04,0-.03.02,0,.01.02.02.02.03-.04.05-.07.04-.17-.02,0-.02,0-.04,0-.07-.01,0-.03-.02-.05-.03-.11-.02-.23-.02-.33-.07,0,0-.07-.06-.05-.09t.2,0s.02,0,.03.01c.07-.01.16,0,.7.22,0,0-.02,0-.03,0h0Z"/>
        <path class="cls-1" d="m63.23,6.19c.42.28.37.29.32.3.1.09.13.12.15.14-.02,0-.03,0-.1-.03-.35-.14-.61-.19-.61-.19-.01,0-.03-.02-.04-.03-.03-.02-.07-.04-.1-.05t.15-.04c-.12-.1-.29-.12-.41-.21-.07-.09-.08-.13-.06-.2.02-.04.02-.06.01-.09l.06.03c.09.07.16.16.26.22.01,0,.04.02.12.03.06.01.11.02.26.11h0Z"/>
        <path class="cls-1" d="m64.2,7.17s.06.05.09.07c0,0-.02,0-.03,0,.11.09.23.18.35.27-.01.03-.01.04.08.13-.03.02-.1.05-.46-.06.44.42.18.6-.05.6-.26,0-.55-.15-.74-.26,0-.15.12-.23.18-.35-.02-.02-.05-.04-.07-.06-.18.07-.3.11-.5.18q-.11-.08-.15-.27c-.1,0-.19.01-.29.02-.36-.46-.5-.64-.47-.72.06-.02.17.05.35.2-.06-.08-.16-.21.01-.19.14.02.21.15.32.21q-.07-.19-.3-.29c-.01-.11.27.05.28.05q.37.21.47.22-.21-.15-.32-.21c-.13-.07-.39-.26-.43-.31.04-.01.9.32,1.04.53.03.05.37.11.37.11.04.01.05.02.07.02.02.02.05.03.07.05q.1.02.11.04h0Z"/>
        <path class="cls-1" d="m70.78,10.68c.56.65.98,1.41,1.56,2.05-.26-.38-.55-.73-.8-1.12.27.26.48.58.71.87,0-.01.32.43.32.43.13.18.25.35.38.53-.18-.24-.35-.49-.52-.73q1.14,1.68,2.05,3.33c-.18-.29-.22-.36-.41-.66.81,1.41,1.81,3.16,2.62,5.5q-.55-1.17-.64-1.32s-.09-.01-.12-.02c-.16.23-.09.32.08.57,0,.03-.01.08-.02.11-.69.19,1.03,3.86,1.19,4.06.04-.02.08-.04.12-.06.12-.52-.22-.97-.2-1.47.08.13.16.26.58,2.08.02-.07.04-.15.06-.22.4.6.31,1.32.5,1.97q0-.11-.03-.33s.01.06.01.06l.05.32c0-.05-.02-.13-.03-.18.04.24.08.48.1.73,0-.04-.8-1.91-.81-1.92-.08.08-.1.19-.16.27q-.13.01-.51-.27s-.02-.07-.03-.1c-.29-.27-.3-.33-.41-.69-.24-.85-1.89-3.15-2.26-3.16.5.93,1.13,1.79,1.67,2.7-.08-.05-.2-.11-.26-.19-.4-.5-.62-1.11-1.03-1.6-1.04-1.26-2.27-2.36-3.12-3.77-.97-1.6-1.07-1.75-1.53-2.31.06-.04.12-.07.18-.11.08.11.16.22.24.33-.26-.62-.49-.72-1.59-1.2,0-.06-.01-.15-.04-.21-.2,0-.31-.18-.48-.24-.02-.02-.03-.05-.05-.07,0-.06-.01-.15-.05-.2-.02.03-.05.06-.07.09q-.11-.08-.26-.28s0,.07,0,.11c-.19-.23-.28-.53-.5-.75.13.22.14.24.19.38-.74-.17-1.13-.85-1.72-1.24.05.05.11.12.15.18-.04,0-.09,0-.13.01,0,.03,0,.08,0,.12-.37-.06-.54-.18-.77-.35-.5.2-.96-.08-1.45-.11-.03.29.14.58.05.87-.37-.33-.35-.43-.27-.73-.02-.02-.05-.06-.07-.08-.04,0-.1,0-.14,0-.1.34.03.68.01,1.02.07.03.17.07.24.09-.16,1.22-.19,1.26-.42,1.6.01.02.03.04.05.06q-.17-.02-.35.33c-.08-.33-.04-.39.09-.5.06-.02.06-.02.06-.02.29-.8.16-1.04-.08-1.33-.02.03-.05.07-.07.1-.07-.03-.15-.08-.2-.13,0,.04.01.09.02.13,0,0-.01.01-.02.02-.14.05-.28.11-.41.16q-.39-.45-.54-.73.02.21,0,.33c-.15.02-.17.03-.55-.2.08-.02.17-.04.25-.06l-.03-.04c-.19-.06-.38-.12-.57-.18-.02-.32-.03-.4-.07-.76.06.03.15.04.22.03.06-.19.07-.19.2-.24q-.06-.19-.41-.6c-.52.52-.61.45-1.19.01.11-.2.14-.26.25-.51,0,.07,0,.17.01.24.13.05.16.07.41-.1,0-.04-.02-.09-.02-.13.06-.05.15-.11.22-.14-.02-.03-.04-.06-.06-.09-1.25-.03-1.34-.57-1.34-.58q.2-.06.18-.85c.06.04.15.09.21.12-.02-.07-.07-.15-.11-.21.06-.04.13-.11.16-.18-.01-.03-.03-.08-.04-.11.26-.07,2.96-.02,2.99-.02.11,0,.28,0,.37-.06-.16-.34-.17-.37-.11-.67.02.01.05.03.07.05.05.23.07.3.11.54.02.02.05.04.08.05-.04-.45-.04-.51-.26-.89q.51.28.69.34c-.11-.13-.13-.17-.24-.32.48.22,1-.09,1.48.11.03.13.06.17.22.18.02-.06.04-.15.06-.21.17-.01.24-.01.91.35,0-.01-.01-.02-.02-.04q-.52-.35-.85-.77c.02.07.03.16.05.23-.06-.06-.12-.16-.16-.24.12-.04.17-.05.55.08.04-.07.06-.15.07-.22.04,0,.1.02.14.02-.1-.09-.22-.15-.3-.25t.43.21c-.56-.6-1.43-.77-1.95-1.42.51.11,1.67.82,1.72.85q-.16-.13-.37-.31c.3.14.56.34.85.48-.1-.11-.17-.18-.75-.65,0,0,.02,0,.03,0q-.25-.14-.33-.19s.04-.07.06-.1c0,0,.78.31,1.42,1.05-.03,0-.08.02-.11.03q.36.33.39.38s-.04.06-.06.08c1.3.68,1.95,2.03,3.03,2.94.02-.02.05-.06.08-.08q.47,0,1.91,1.24c-1.15-1.42-2.63-2.52-3.84-3.89.03.01.07.03.1.04,0-.04,0-.09-.01-.13.48.15.75.6,1.19.81-.11-.16-.13-.18-.83-.83.37.29.4.32.45.36.39.31.67.74,1.11.98.16.17.32.34.48.51-.13-.14-.25-.27-.38-.41,0,0,1.14,1.23,1.14,1.23h0Z"/>
        <path class="cls-1" d="m55.56.99c-.07-.02-.16-.05-.23-.06.44.15.88.28,1.32.43q-.47-.15-.69-.21c.19.08.38.12.57.2-.11-.03-.22-.07-.34-.1.22.08.37.15.57.23-.4-.14-.79-.31-1.2-.43.2.13.43.19.64.3-.23-.08-.44-.2-.68-.25.05.03.09.06.36.19.23.11.5.13.72.27,0,.02,0,.04-.01.06.04.02.09.05.14.06,0-.02,0-.04-.01-.06.03,0,.06,0,.09,0q.09.08.16.11t.16.03l.04.06s.1.02.14.02c-.01.01-.02.03-.03.05.02.04.05.09.76.34-.3-.08-.34-.09-.43-.11,0,0,1.53.83,1.53.83.03,0,.03,0,.02,0,.46.13.81.63,1.4.72,0-.05.01-.11.02-.16.19.07.28.27.46.36,0-.02.02-.04.03-.05q.08.02.28.14c-.04-.11-.14-.19-.2-.28.18-.14,1.5.51,2.01.82q-.05-.06-.39-.27c.11.06.23.12.34.19-.03-.02-.07-.05-.1-.07.59.34,1.69.98,2.91,1.87-.14-.11-.28-.21-.42-.32.39.28.75.56.89.66-2.27-1.66-2.41-1.76-3.93-2.63-2.05-1.09-2.31-1.23-4.1-1.96l-.55-.21c-.56-.2-1-.36-1.34-.46.06.02.13.04.19.07-.15-.04-.3-.1-.45-.15.04.01.09.03.12.05-.26-.07-.51-.16-.77-.24h0Z"/>
        <path class="cls-1" d="m65.49,6.02q.15.12.47.36s-.04-.01-.05-.02c.14.12.3.22.45.32-.06-.04-.13-.08-.19-.12.04.04.09.08.13.12q-.42-.3-.52-.3s.02.02.18.15c0,0,0,.02,0,.03.02.01.04.03.06.05.2.1.34.17.52.26.03.02.05.04.08.06.03.02.05.04.08.06.03.02.06.04.08.06.03.02.06.04.08.06.03.02.06.04.08.06.03.02.06.04.08.07.03.02.06.04.08.07.03.02.06.04.08.07-.08-.03-.15-.06-.23-.08.17.14.36.25.54.37-.1.06-.28-.02-.54-.23,0,.02.02.04.03.06t-.32-.2c.08.09.18.14.26.22-.07-.04-.14-.08-.2-.13.11.15.12.17.15.21-.13.02-.4-.3-.4-.31.02,0,.05,0,.06.02-.11-.22-1.23-1.12-1.51-1.12t.02.08q-.4-.24-.5-.28s.01.01.02.02c-.12,0-.21-.08-.32-.12.09.08.28.05.29.22-.01.01-.03.02-.05.02t.11.12q-.07.19-.31.05c.06.09.07.1.08.13-.07.01-.21-.07-.27-.1-.06-.04-.07-.11-.12-.14-.36.08-1.28-.86-1.28-.87q.05-.04.38.2.11.09.61.34c.25.13.27.14.39.19q-.08-.07-.58-.31s.03-.02.05-.03c-.39-.21-.65-.35-.69-.48,0,0,0-.02.01-.02.32-.06.43.3.7.34t-.16-.14s.02,0,.02,0c0,0,.02-.01.02-.02q.07.02.23.12c-.16-.12-.34-.2-.49-.33q-.01.07-.04.09s-.17-.06-.37-.18q.19-.1.45.09c.09-.02.24.03.56.18-.03-.05-.06-.09-.09-.14.1.06.19.12.29.17,0-.02,0-.06,0-.08q.06-.01.56.36t.55.24s0-.04,0-.05l.07.04c-.05-.04-.1-.08-.15-.12.14.08.27.17.41.25-.03-.03-.07-.07-.1-.1t.07.05s0-.02,0-.02c.04,0,.04,0,.11.06h0Z"/>
        <path class="cls-1" d="m57.93,2.36c.31.14.33.2.38.3.03.01.06.02.09.03.1-.08.64.26.69.3-.02,0-.06-.02-.08-.02.13.05.36.15.43.24-.02.02-.03.03-.03.03.23.09.41.26.63.37.15-.01.48.14.57.25-.01,0-.04,0-.05,0,.17.07.28.22.45.31,0-.01.02-.02.02-.04.25.07.38.17.51.29-.09-.03-.18-.06-.27-.09.02.01.06.03.08.04.08.16.09.17.12.19-.04.01-.07,0-.09,0t.08.13c-.09,0-.33,0-.48-.29q-.23-.05-.31-.13s.01-.01.02-.02q.17.02.19,0s-.02-.04-.09-.1c0,.07-.06.04-.06.04q-.15-.1-.35-.19c.05.09.13.14.2.21-.39-.21-.49-.27-.5-.33.02-.03.03-.04.12-.04-.07-.03-.14-.06-.21-.1,0,.01,0,.03,0,.05-.06.04-.67-.16-.75-.23.02-.02.02-.03.2-.02.17,0,.19,0,.24,0-.13-.06-.27-.02-.39-.08-.11-.11-.18-.18-.3-.29-.02,0-.05-.02-.07-.03q-.1-.02-.29-.13c.1.18.32.2.46.34-.01.03-.02.04.04.17-.03,0-.06-.02-.08-.03q-.24-.14-.32-.17c.06.1.09.15.13.23-.02,0-.06-.02-.08-.03q-.21-.15-.27-.17s.05.06.08.09c-.11-.05-.12-.05-.16-.06t.02.06s-.03,0-.13-.04c-.02-.1-.04-.17-.09-.27-.11,0-.11,0-.21-.09.04-.02.07-.02.09-.02-.02-.02-.02-.02-.26-.16.02,0,.04.01.06.01-.05-.01-.09-.03-.14-.04.01,0,.03-.01.05-.02t-.14-.05s.06-.1.05-.15c-.03-.07-.12-.09-.15-.15-.01-.04-.02-.06-.02-.12q.12.05.14.05s-.08-.05-.12-.08c0,0,0-.02.01-.02.17-.03.22,0,.34.05h0Z"/>
        <path class="cls-1" d="m59.89,3.85c.17.13.33.26.51.37q-.03.11-.1.09s-.09-.02-.13-.03c-.07-.02-.17-.03-.24-.06-.08-.04-.12-.12-.2-.15q-.21,0-.23.01s-.03.04-.23-.06c.03-.06-.02-.08-.02-.08-.02.05-.11.01-.11.01q-.24-.19-.26-.19c-.12,0-.29-.17-.29-.17.03,0,.05,0,.24.03.27.06.31.06.46.08-.04-.02-.04-.03-.04-.04,0,0,.02,0,.06,0,.01,0,.03,0,.04.01.1.03.19.08.29.11.05.02.11,0,.16,0,.03,0,.07.03.09.05h0Z"/>
        <path class="cls-1" d="m62.24,4.75c.23.17.2.2.17.2-.02,0-.05,0-.07-.01.13.19.13.37-.1.34-.16-.02-.36-.13-.59-.26,0,0-.24-.09-.28-.07,0,.02.03.03.03.06-.04.03-.3-.04-.3-.04,0,0-.18-.11-.19-.13.02,0,.04,0,.05,0,.23.02.3,0,.43-.07.02.01.05.02.07.04q.09.07.34.16c.06-.06.04-.13-.02-.23-.04-.07-.07-.13-.03-.14.12-.06.46.15.49.17h0Z"/>
        <path class="cls-1" d="m67.13,7.97c.15.13.16.16.16.17-.01,0-.02,0-.11-.04-.11-.06-.11-.06-.15-.07.31.35.33.37.34.4-.08.01-.16-.02-.23-.02-.02-.03-.05-.09-.12-.16-.22-.21-.45-.39-.67-.59.07.04.13.08.2.13-.03-.04-.07-.08-.1-.13.12.07.15.09.26.13.13.04.21.09.4.23,0-.03-.02-.06-.03-.09.02.01.04.03.06.05h0Z"/>
        <path class="cls-1" d="m62.69,5.51c.06.04.34.26.42.33,0,0,.01.01.02.02t.03.08s0,.03.08.08c.02.01.22.14.23.19-.04.03-.5-.24-.77-.4,0,0-.2-.13-.2-.19.03-.07.1-.1.13-.15.02.01.04.03.06.05h0Z"/>
        <path class="cls-1" d="m77.16,22.02c.04.14.06.19.1.36-.19-.62-.27-.56-.27-.56t.09.5s-.02-.04-.03-.06c-.08-.34-.11-.48-.12-.61,0-.06,0-.07.02-.08.08.01.2.41.21.45h0Z"/>
        <path class="cls-1" d="m64.91,7.28s.14.1.06.12c-.06,0-.11-.01-.17,0-.02,0-.04.01-.04.04-.2-.2-.3-.31-.42-.43.11.06.16.08.24.1.08.02.15.03.34.17h0Z"/>
        <path class="cls-1" d="m60.44,4.54s.06.09-.02.08c-.11-.01-.39-.14-.5-.2q.27,0,.29,0s.2.07.23.11h0Z"/>
        <path class="cls-1" d="m62.06,5.32c.07.04.14.09.13.1-.02.01-.2.01-.21,0,0,0-.28-.17-.27-.23.04-.06.34.11.35.12h0Z"/>
        <path class="cls-1" d="m65.72,6.67s0,.02,0,.03c0,0,0,.02.01.03,0,.02,0,.02-.06-.01-.13-.08-.37-.26-.41-.31.02-.02.19.09.45.26,0,0,0,0,0,0Z"/>
        <path class="cls-1" d="m63.79,4.77c.11.06.21.14.24.16-.03-.02-.07-.04-.1-.06,0,0,0,.02.01.03-.09-.06-.19-.13-.24-.17,0-.02.06.02.09.04h0Z"/>
        <path class="cls-1" d="m71.37,11.38s-.04-.03-.06-.05c-.03-.03-.05-.07-.08-.1,0-.01,0-.01.13.15h0Z"/>
        <path class="cls-1" d="m60.71,4.58c.05.04.05.06.05.07,0,0,0,.01-.03.02-.04.01-.04.02-.05.03-.03-.01-.06-.03-.08-.04,0-.04.01-.09.01-.13l.08.04s.01.01.02.02h0Z"/>
        <path class="cls-1" d="m58.91,3.48c.21.1.22.12.21.13-.02,0-.12-.01-.17-.02-.02-.04-.05-.08-.07-.12,0,0,.02.01.03.01h0Z"/>
        <path class="cls-1" d="m77.46,23.01s0,.03,0,.04c-.02-.07-.04-.14-.05-.21,0,0,.05.16.05.16h0Z"/>
        <path class="cls-1" d="m67.56,8.42c.06.07.11.14.17.22-.02,0-.04-.01-.05-.03-.21-.2-.21-.21-.21-.22,0-.02,0-.03,0-.04q.08.06.09.08h0Z"/>
        <path class="cls-1" d="m69.79,10.23c.06.08.11.15.17.23-.04-.04-.09-.07-.14-.11-.01,0-.1-.13-.11-.16,0-.03.07.03.07.03h.01Z"/>
        <path class="cls-1" d="m72.15,12.36s.02.03.03.04c-.02-.01-.03-.03-.04-.05-.03-.04-.06-.07-.09-.11.01,0,.02.02.03.04l.06.08h0Z"/>
        <path class="cls-1" d="m67.73,8.41c.07.06.13.12.2.18,0,0-.02,0-.03,0-.09-.08-.17-.15-.26-.23.01,0,.03,0,.04,0,.02,0,.03.02.05.04h0Z"/>
        <path class="cls-1" d="m62.06,6.81c.11.28.28.51.39.66.11.15.15.21.14.25-.01.1-.61-.12-.62-.13-.02-.02-.05-.05-.07-.07q-.48-.5-.87-.72s.07-.05.11-.07c.24-.14.47-.15.88-.02.01.03.03.07.04.1h0Z"/>
        <path class="cls-1" d="m61.47,5.65c.12.08.22.18.23.21,0,.06-.05.05-.07.07-.03.02,0,.07.03.14.06.11.11.2.03.22-.05.01-.13-.01-.19-.03q-.06-.19-.12-.23c-.05.02-.11.04-.16.06.07.08.14.16-.02.15q-.13,0-.26-.13c-.33-.3-.28-.34-.27-.35.04-.03.2,0,.32.04.17.04.33.08.32.02,0-.05-.34-.19-.35-.19-.03,0-.05,0-.08,0-.12-.14-.16-.18-.16-.2.04,0,.05,0,.21.1.17.09.28.13.31.11.02,0,0-.03,0-.04,0,0-.01-.02-.01-.02.02-.02.13.03.23.1h0Z"/>
        <path class="cls-1" d="m60.24,5.59c.2.13.3.22.29.25-.03.01-.1,0-.27-.08.21.14.25.18.26.22,0,.01-.01.02-.05.02.07.05.22.17.02.19q-.11.01-.24-.17c-.08-.11-.3-.44-.25-.51.06-.03.15.03.24.08h0Z"/>
        <path class="cls-1" d="m60.05,5.11s.02.01.03.02c.01,0,.02.01.03.02.01,0,.02.01.03.02.01,0,.02.01.03.02.01,0,.02.01.03.02.01,0,.02.01.03.02.01,0,.02.01.03.02-.02.05-.03.1-.05.16-.18-.11-.19-.11-.2-.14,0-.01,0-.03,0-.06,0-.05,0-.07,0-.1.01,0,.02.01.03.02h0Z"/>
        <path class="cls-1" d="m59.88,4.98c-.26,0-.29-.06-.27-.09.04-.02.11,0,.27.08h0Z"/>
        <path class="cls-1" d="m62.51,6.23c.07.06.14.12.21.18-.05-.02-.1-.03-.15-.05-.01,0-.03,0-.04-.01-.01,0-.03,0-.04-.01-.03,0-.06-.01-.08-.03,0,0-.08-.09-.07-.12.02-.02.12,0,.16.04h0Z"/>
        <path class="cls-1" d="m62.29,8.87c.01.09.02.18.02.26-.13-.14-.16-.22-.08-.26.02,0,.03-.01.05-.02h0Z"/>
        <path class="cls-1" d="m60.64,5.1s.03.04,0,.04c-.05,0-.23-.09-.24-.1-.02,0-.04-.03-.06-.04q.3.09.3.1h0Z"/>
      </g>
      <g>
        <path class="cls-4" d="m40.13,78.67c-.69-.48-1.32-1.19-2.16-1.37-.08-.02-.16-.05-.23-.11-4.6-4.06-12.43-4.06-17.99-7.14-.11-.06-.19-.17-.23-.29-.14-.39-.65-.72-1.06-.86-.07-.03-.14-.07-.2-.12-2.62-2.73-5.56-5.88-8.81-8.11-2.95-1.97-5.83.21-3.04,2.93.05.05.09.1.11.16.75,1.87,2.45,3.95,3.73,5.7.02.03.04.06.05.09,1.18,2.67,3.85,4.12,5.96,5.96-4.99-1.78-7.37-6.55-10.34-10.54-1.31-1.65-3.16-4.92-.46-5.84.26-.09.38-.38.29-.64-1.23-3.57-1.03-7.35-1.22-11.06,0-.02,0-.04,0-.06-.26-1.71-1.5-3.7-3.39-3.6-.23.01-.42.18-.46.41-.48,2.6-.1,5.32-.36,7.96-2.07,14.66,6.43,32.19,21.55,35.66h0c4.15,1.11,8.34,2.16,12.34,3.56.11.04.38.15.48.22.13.1.32.21.41.25.1.05.4.16.5.22,3.43,2.32,6.41,5.45,8.43,9.17.2.37.75.34.91-.05,3.05-7.71,2.4-17.34-4.79-22.5Z"/>
        <path class="cls-4" d="m95.23,53.8c-.39-3.25-.08-6.64-.49-9.93-6.52-.18-2.67,11.15-5.26,15.19,5.58,1.74-2.87,8.66-3.92,11.54-1.64,2.31-3.98,3.86-6.54,4.98,1.48-1.26,3.11-2.31,4.51-3.67h0c1.16-1.03,2.05-2.71,2.74-4.2.43.01.61-.54.82-1.05.51-.81.92-1.52,1.51-2.14l.19-.23c.15-.23.18-.23.33-.46l.19-.27c.38-.91,1.56-3.13-.02-3.42-.73-.54-2.42-.16-2.87.54-5.04,2.21-8.26,8.55-13.48,10.91-3.28.74-7.46,1.23-10.1,3.07-12.59,3.64-17.17,15.61-11.99,27.47,2.61-4.63,6.09-9.08,11.18-10.97l.3-.15.47-.27c.23-.09.36-.18.6-.27l.45-.18c16.93-3.06,26.24-9.43,30.87-26.41,1.28-2.89.49-6.83.51-10.06Z"/>
      </g>
      <path class="cls-3" d="m10.51,48.98c9.15-7.83,42.19-32.67,92.41-32.07.97.01,1.23,1.36.32,1.72-8.04,3.18-23.58,11.96-26.67,32.94-.08.56-.64.91-1.18.72-5.16-1.88-29.43-9.53-64.11-1.77-.9.2-1.48-.93-.78-1.54Z"/>
      <polygon class="cls-3" points="31.05 21.32 37.97 21.32 37.97 11.57 40.09 11.57 40.09 21.32 43.45 21.32 43.45 25.17 31.05 30.98 31.05 21.32"/>
      <g>
        <path class="cls-4" d="m139.62,34.94h5.82l3.67,10.77,3.67-10.77h5.87l-5.55,14.81,4.13,10.41,9.22-25.31h6.88l-13.25,32.55h-5.32l-5.64-13.66-5.64,13.66h-5.32l-13.16-32.55h6.78l9.26,25.31,4.03-10.41-5.45-14.81Z"/>
        <path class="cls-4" d="m182.99,46.54v20.86h-6.33v-32.55h4.9l16.96,21.36v-21.32h6.32v32.5h-5.13l-16.73-20.86Z"/>
        <path class="cls-4" d="m214.99,34.85l8.8,24.62,8.71-24.62h6.65l-12.7,32.55h-5.32l-12.79-32.55h6.65Z"/>
        <path class="cls-4" d="m255.33,67.63c-2.39,0-4.55-.47-6.49-1.4-1.94-.93-3.61-2.17-5-3.71-1.39-1.54-2.47-3.31-3.23-5.3-.76-1.99-1.15-4.02-1.15-6.1s.4-4.25,1.21-6.24c.81-1.99,1.93-3.74,3.35-5.27,1.42-1.53,3.11-2.74,5.07-3.65,1.96-.9,4.08-1.35,6.37-1.35s4.5.48,6.44,1.44c1.94.96,3.6,2.22,4.98,3.78s2.44,3.33,3.21,5.32c.76,1.99,1.15,4.01,1.15,6.05,0,2.17-.4,4.24-1.19,6.21-.8,1.97-1.89,3.71-3.3,5.23-1.4,1.51-3.09,2.72-5.04,3.62-1.96.9-4.08,1.35-6.37,1.35Zm-9.44-16.5c0,1.4.21,2.77.64,4.08.43,1.31,1.04,2.48,1.85,3.48.81,1.01,1.8,1.82,2.98,2.43,1.18.61,2.51.92,4.01.92s2.88-.31,4.06-.94c1.18-.63,2.17-1.46,2.98-2.5.81-1.04,1.42-2.21,1.83-3.51.41-1.3.62-2.62.62-3.97s-.22-2.77-.67-4.08c-.44-1.31-1.07-2.48-1.88-3.49-.81-1.01-1.8-1.81-2.98-2.41-1.18-.6-2.5-.89-3.97-.89s-2.89.31-4.08.94c-1.19.63-2.19,1.45-2.98,2.48-.8,1.03-1.4,2.19-1.81,3.49-.41,1.3-.62,2.62-.62,3.97Z"/>
        <path class="cls-4" d="m298.7,61.85v5.55h-22.6v-32.55h22.19v5.55h-15.86v7.84h13.71v5.14h-13.71v8.48h16.27Z"/>
        <path class="cls-4" d="m300.99,50.9c0-1.99.36-3.95,1.08-5.89.72-1.94,1.76-3.67,3.14-5.2,1.38-1.53,3.06-2.77,5.04-3.71,1.99-.95,4.25-1.42,6.78-1.42,2.99,0,5.58.66,7.77,1.97,2.19,1.31,3.81,3.02,4.88,5.13l-4.86,3.35c-.43-.92-.95-1.69-1.56-2.32-.61-.62-1.27-1.12-1.97-1.49-.7-.37-1.44-.63-2.2-.8-.76-.17-1.51-.25-2.25-.25-1.59,0-2.97.32-4.15.96-1.18.64-2.16,1.47-2.93,2.5-.78,1.03-1.37,2.19-1.76,3.49-.4,1.3-.6,2.59-.6,3.87,0,1.44.23,2.82.69,4.15.46,1.33,1.11,2.5,1.95,3.51.84,1.01,1.85,1.82,3.02,2.43,1.18.61,2.47.92,3.87.92.73,0,1.5-.09,2.29-.27.79-.18,1.55-.47,2.27-.87.72-.4,1.38-.91,1.99-1.53.61-.63,1.1-1.38,1.47-2.27l5.18,2.98c-.52,1.22-1.26,2.3-2.23,3.23-.96.93-2.05,1.72-3.25,2.36-1.21.64-2.5,1.13-3.87,1.47-1.38.34-2.72.5-4.03.5-2.32,0-4.45-.49-6.37-1.47-1.92-.98-3.58-2.25-4.97-3.83-1.39-1.57-2.48-3.36-3.26-5.36-.78-2-1.17-4.04-1.17-6.12Z"/>
      </g>
    </g>
  </g>
</svg>